<svg width="105" height="32" viewBox="0 0 105 32" fill="none" xmlns="http://www.w3.org/2000/svg">
<path d="M9.67046 3.08215L8.9203 7.40369H15.3129L14.7258 10.7468H8.33323L7.09384 18.3461C7.03948 18.8136 7.02861 19.2431 7.06123 19.6345C7.10472 20.0258 7.21343 20.3683 7.38738 20.6618C7.55046 20.9554 7.78964 21.1891 8.10492 21.3631C8.43107 21.537 8.84964 21.6294 9.36061 21.6403C9.99118 21.662 10.6163 21.624 11.236 21.5261C11.8557 21.4283 12.4754 21.3141 13.0951 21.1837L13.2418 24.3311C12.4482 24.7659 11.573 25.054 10.6163 25.1954C9.65959 25.3367 8.75179 25.3965 7.89292 25.3748C6.90359 25.3639 6.05015 25.1899 5.33261 24.8529C4.62595 24.505 4.05518 24.0375 3.62031 23.4505C3.17456 22.8634 2.86472 22.173 2.69077 21.3794C2.52769 20.5749 2.49508 19.7051 2.59292 18.7701L3.91384 10.7468H0L0.587077 7.40369H4.50092L5.25108 3.08215H9.67046Z" fill="black"/>
<path d="M19.9378 7.40369H29.2821L26.8522 21.3631H31.4999L30.8476 25.0486H16.8719L17.5079 21.3631H22.3839L24.1615 11.1055H19.2855L19.9378 7.40369ZM25.2704 2.968C25.2704 2.25046 25.5096 1.65251 25.9879 1.17415C26.4772 0.695795 27.0914 0.456615 27.8307 0.456615C28.5265 0.434872 29.119 0.641436 29.6082 1.07631C30.1083 1.51118 30.3584 2.08738 30.3584 2.80492C30.3584 3.55508 30.1083 4.1639 29.6082 4.63138C29.1081 5.088 28.5047 5.31631 27.7981 5.31631C27.1023 5.33805 26.5043 5.13149 26.0042 4.69661C25.515 4.26174 25.2704 3.68554 25.2704 2.968Z" fill="black"/>
<path d="M34.7549 16.2098C34.8419 15.4706 34.9887 14.7258 35.1952 13.9757C35.4018 13.2255 35.6682 12.508 35.9943 11.8231C36.3205 11.1382 36.7064 10.5022 37.1522 9.91507C37.5979 9.328 38.1143 8.81702 38.7014 8.38215C39.2776 7.95815 39.919 7.632 40.6257 7.40369C41.3432 7.16451 42.126 7.05579 42.974 7.07754C43.4959 7.08841 43.996 7.15907 44.4743 7.28954C44.9636 7.40913 45.4147 7.59395 45.8279 7.844C46.0779 7.9962 46.3171 8.18102 46.5454 8.39846C46.7737 8.60502 46.9803 8.83877 47.1651 9.09969L47.7522 7.38738L51.8128 7.40369L48.91 24.4778C48.7361 25.6737 48.3827 26.7446 47.85 27.6905C47.3173 28.6363 46.6487 29.4299 45.8442 30.0714C45.0288 30.7237 44.0992 31.2129 43.0556 31.5391C42.0119 31.8761 40.8921 32.0283 39.6962 31.9957C38.522 31.9739 37.3859 31.7185 36.2879 31.2292C35.1898 30.7509 34.2711 30.0496 33.5319 29.1255L35.7986 26.4185C36.2879 27.049 36.8586 27.5382 37.5109 27.8861C38.1632 28.2449 38.8971 28.4352 39.7125 28.4569C40.343 28.4787 40.9247 28.3971 41.4574 28.2123C41.9901 28.0384 42.463 27.7774 42.8762 27.4295C43.2893 27.0925 43.6372 26.6794 43.9199 26.1901C44.2025 25.7118 44.4091 25.1682 44.5396 24.5594L44.7679 23.5157C44.4961 23.7766 44.2134 24.0158 43.9199 24.2332C43.6263 24.4507 43.3219 24.6355 43.0066 24.7877C42.6044 24.9942 42.1804 25.1465 41.7346 25.2443C41.2998 25.3421 40.8377 25.3856 40.3485 25.3748C39.5657 25.3639 38.8699 25.228 38.2611 24.9671C37.6631 24.7061 37.1467 24.3528 36.7119 23.9071C36.2661 23.4722 35.8965 22.9667 35.6029 22.3905C35.3203 21.8143 35.1028 21.2 34.9506 20.5477C34.7876 19.9062 34.6897 19.2431 34.6571 18.5581C34.6245 17.8732 34.6408 17.2046 34.706 16.5523L34.7549 16.2098ZM39.158 16.5523C39.1254 16.8893 39.1037 17.2535 39.0928 17.6449C39.0819 18.0254 39.0982 18.4005 39.1417 18.7701C39.1852 19.1507 39.2613 19.5149 39.37 19.8628C39.4787 20.1998 39.6364 20.4988 39.8429 20.7597C40.0495 21.0315 40.305 21.2544 40.6094 21.4283C40.9247 21.5914 41.3052 21.6784 41.7509 21.6892C42.1423 21.7001 42.512 21.662 42.8599 21.5751C43.2078 21.4881 43.5285 21.3576 43.822 21.1837C44.0721 21.0424 44.3058 20.8684 44.5232 20.6618C44.7516 20.4553 44.969 20.227 45.1756 19.9769L46.5128 12.4591C46.3714 12.1547 46.2029 11.8937 46.0072 11.6763C45.8116 11.448 45.5941 11.2632 45.3549 11.1218C45.1266 11.0023 44.882 10.9098 44.6211 10.8446C44.3602 10.7794 44.0775 10.7413 43.7731 10.7305C43.0338 10.7196 42.3924 10.8827 41.8488 11.2197C41.3052 11.5458 40.854 11.9753 40.4952 12.508C40.1256 13.0407 39.8321 13.6387 39.6146 14.3018C39.4081 14.9541 39.2667 15.5901 39.1906 16.2098L39.158 16.5523Z" fill="black"/>
<path d="M52.6869 16.2098C52.7738 15.4706 52.9206 14.7258 53.1272 13.9757C53.3337 13.2255 53.6001 12.508 53.9263 11.8231C54.2524 11.1382 54.6384 10.5022 55.0841 9.91507C55.5298 9.328 56.0463 8.81702 56.6333 8.38215C57.2095 7.95815 57.851 7.632 58.5576 7.40369C59.2752 7.16451 60.0579 7.05579 60.9059 7.07754C61.4278 7.08841 61.9279 7.15907 62.4063 7.28954C62.8955 7.40913 63.3467 7.59395 63.7598 7.844C64.0098 7.9962 64.249 8.18102 64.4773 8.39846C64.7056 8.60502 64.9122 8.83877 65.097 9.09969L65.6841 7.38738L69.7447 7.40369L66.8419 24.4778C66.668 25.6737 66.3147 26.7446 65.7819 27.6905C65.2492 28.6363 64.5806 29.4299 63.7761 30.0714C62.9607 30.7237 62.0312 31.2129 60.9875 31.5391C59.9438 31.8761 58.824 32.0283 57.6281 31.9957C56.4539 31.9739 55.3178 31.7185 54.2198 31.2292C53.1217 30.7509 52.2031 30.0496 51.4638 29.1255L53.7306 26.4185C54.2198 27.049 54.7906 27.5382 55.4429 27.8861C56.0952 28.2449 56.829 28.4352 57.6444 28.4569C58.275 28.4787 58.8566 28.3971 59.3893 28.2123C59.9221 28.0384 60.395 27.7774 60.8081 27.4295C61.2212 27.0925 61.5691 26.6794 61.8518 26.1901C62.1345 25.7118 62.341 25.1682 62.4715 24.5594L62.6998 23.5157C62.428 23.7766 62.1453 24.0158 61.8518 24.2332C61.5583 24.4507 61.2538 24.6355 60.9386 24.7877C60.5363 24.9942 60.1123 25.1465 59.6666 25.2443C59.2317 25.3421 58.7696 25.3856 58.2804 25.3748C57.4976 25.3639 56.8018 25.228 56.193 24.9671C55.5951 24.7061 55.0787 24.3528 54.6438 23.9071C54.1981 23.4722 53.8284 22.9667 53.5349 22.3905C53.2522 21.8143 53.0348 21.2 52.8826 20.5477C52.7195 19.9062 52.6216 19.2431 52.589 18.5581C52.5564 17.8732 52.5727 17.2046 52.638 16.5523L52.6869 16.2098ZM57.09 16.5523C57.0573 16.8893 57.0356 17.2535 57.0247 17.6449C57.0138 18.0254 57.0302 18.4005 57.0736 18.7701C57.1171 19.1507 57.1932 19.5149 57.3019 19.8628C57.4107 20.1998 57.5683 20.4988 57.7749 20.7597C57.9814 21.0315 58.2369 21.2544 58.5413 21.4283C58.8566 21.5914 59.2371 21.6784 59.6829 21.6892C60.0743 21.7001 60.4439 21.662 60.7918 21.5751C61.1397 21.4881 61.4604 21.3576 61.7539 21.1837C62.004 21.0424 62.2377 20.8684 62.4552 20.6618C62.6835 20.4553 62.9009 20.227 63.1075 19.9769L64.4447 12.4591C64.3034 12.1547 64.1349 11.8937 63.9392 11.6763C63.7435 11.448 63.5261 11.2632 63.2869 11.1218C63.0586 11.0023 62.8139 10.9098 62.553 10.8446C62.2921 10.7794 62.0094 10.7413 61.705 10.7305C60.9657 10.7196 60.3243 10.8827 59.7807 11.2197C59.2371 11.5458 58.7859 11.9753 58.4272 12.508C58.0575 13.0407 57.764 13.6387 57.5466 14.3018C57.34 14.9541 57.1987 15.5901 57.1226 16.2098L57.09 16.5523Z" fill="black"/>
<path d="M74.761 0H84.3499L80.648 21.3631H85.5566L84.9043 25.0486H70.4068L71.0591 21.3631H76.1797L79.2456 3.70185H74.1087L74.761 0Z" fill="black"/>
<path d="M95.9707 25.3748C94.764 25.3639 93.6713 25.1356 92.6929 24.6898C91.7253 24.2441 90.9099 23.6407 90.2467 22.8797C89.5727 22.1295 89.078 21.2435 88.7627 20.2215C88.4475 19.1996 88.3442 18.0907 88.4529 16.8948L88.5181 16.2261C88.6268 15.2477 88.8551 14.3018 89.203 13.3886C89.5618 12.4754 90.0184 11.6383 90.5729 10.8772C90.9643 10.3771 91.3937 9.90964 91.8612 9.47477C92.3287 9.02902 92.8288 8.64307 93.3615 8.31692C94.0356 7.91466 94.7694 7.60482 95.563 7.38738C96.3567 7.15907 97.1938 7.05579 98.0744 7.07754C99.3029 7.11015 100.363 7.36564 101.254 7.844C102.146 8.32236 102.869 8.95836 103.423 9.752C103.967 10.5565 104.337 11.4752 104.532 12.508C104.739 13.5408 104.771 14.628 104.63 15.7695L104.337 17.6938H92.807C92.7853 18.2592 92.856 18.7865 93.019 19.2757C93.1821 19.754 93.4213 20.1726 93.7366 20.5314C94.041 20.8901 94.4215 21.1783 94.8781 21.3957C95.3347 21.6023 95.8566 21.711 96.4437 21.7218C97.3678 21.7545 98.2375 21.5968 99.0529 21.2489C99.8791 20.8901 100.608 20.3846 101.238 19.7323L103.244 22.1948C102.461 23.2819 101.401 24.0865 100.064 24.6083C98.7376 25.1301 97.3732 25.3856 95.9707 25.3748ZM97.7483 10.7305C97.1612 10.7087 96.6339 10.8066 96.1664 11.024C95.6989 11.2414 95.2858 11.535 94.927 11.9046C94.5574 12.2743 94.2367 12.6928 93.9649 13.1603C93.6931 13.6278 93.4539 14.1007 93.2474 14.5791H100.439L100.521 14.1714C100.597 13.693 100.586 13.2473 100.488 12.8342C100.39 12.421 100.222 12.0623 99.9824 11.7578C99.7324 11.4534 99.4171 11.2143 99.0366 11.0403C98.6669 10.8555 98.2375 10.7522 97.7483 10.7305Z" fill="black"/>
</svg>
