<svg width="66" height="20" viewBox="0 0 66 20" fill="none" xmlns="http://www.w3.org/2000/svg">
<path d="M6.04404 1.92635L5.57519 4.62731H9.57057L9.20365 6.71673H5.20827L4.43365 11.4663C4.39968 11.7585 4.39288 12.0269 4.41327 12.2715C4.44045 12.5162 4.5084 12.7302 4.61711 12.9136C4.71904 13.0971 4.86852 13.2432 5.06558 13.3519C5.26942 13.4606 5.53102 13.5184 5.85038 13.5252C6.24449 13.5388 6.63519 13.515 7.0225 13.4538C7.40981 13.3927 7.79711 13.3213 8.18442 13.2398L8.27615 15.2069C7.78013 15.4787 7.23314 15.6588 6.63519 15.7471C6.03724 15.8354 5.46987 15.8728 4.93308 15.8592C4.31474 15.8524 3.78135 15.7437 3.33288 15.5331C2.89122 15.3156 2.53449 15.0235 2.26269 14.6565C1.9841 14.2896 1.79045 13.8581 1.68173 13.3621C1.57981 12.8593 1.55942 12.3157 1.62058 11.7313L2.44615 6.71673H0L0.366923 4.62731H2.81308L3.28192 1.92635H6.04404Z" fill="black"/>
<path d="M12.4611 4.62731H18.3013L16.7826 13.3519H19.6875L19.2798 15.6554H10.545L10.9425 13.3519H13.99L15.1009 6.94096H12.0534L12.4611 4.62731ZM15.794 1.855C15.794 1.40654 15.9435 1.03282 16.2425 0.733846C16.5482 0.434872 16.9321 0.285385 17.3942 0.285385C17.8291 0.271795 18.1994 0.400897 18.5051 0.672692C18.8177 0.944487 18.974 1.30462 18.974 1.75308C18.974 2.22192 18.8177 2.60244 18.5051 2.89461C18.1926 3.18 17.8155 3.32269 17.3738 3.32269C16.9389 3.33628 16.5652 3.20718 16.2526 2.93538C15.9469 2.66359 15.794 2.30346 15.794 1.855Z" fill="black"/>
<path d="M21.7218 10.1312C21.7762 9.6691 21.8679 9.20365 21.997 8.73481C22.1261 8.26596 22.2926 7.8175 22.4965 7.38942C22.7003 6.96134 22.9415 6.56384 23.2201 6.19692C23.4987 5.83 23.8215 5.51064 24.1884 5.23884C24.5485 4.97384 24.9494 4.77 25.3911 4.62731C25.8395 4.47782 26.3288 4.40987 26.8588 4.42346C27.1849 4.43025 27.4975 4.47442 27.7965 4.55596C28.1022 4.6307 28.3842 4.74622 28.6424 4.9025C28.7987 4.99763 28.9482 5.11314 29.0909 5.24904C29.2336 5.37814 29.3627 5.52423 29.4782 5.68731L29.8451 4.61711L32.383 4.62731L30.5688 15.2986C30.46 16.0461 30.2392 16.7154 29.9063 17.3065C29.5733 17.8977 29.1554 18.3937 28.6526 18.7946C28.143 19.2023 27.562 19.5081 26.9097 19.7119C26.2574 19.9226 25.5575 20.0177 24.8101 19.9973C24.0763 19.9837 23.3662 19.824 22.6799 19.5183C21.9936 19.2193 21.4195 18.781 20.9574 18.2035L22.3741 16.5115C22.6799 16.9056 23.0366 17.2114 23.4443 17.4288C23.852 17.6531 24.3107 17.772 24.8203 17.7856C25.2144 17.7992 25.5779 17.7482 25.9109 17.6327C26.2438 17.524 26.5394 17.3609 26.7976 17.1435C27.0558 16.9328 27.2732 16.6746 27.4499 16.3688C27.6266 16.0699 27.7557 15.7301 27.8372 15.3496L27.9799 14.6973C27.81 14.8604 27.6334 15.0099 27.4499 15.1458C27.2665 15.2817 27.0762 15.3972 26.8791 15.4923C26.6277 15.6214 26.3627 15.7165 26.0841 15.7777C25.8124 15.8388 25.5236 15.866 25.2178 15.8592C24.7286 15.8524 24.2937 15.7675 23.9132 15.6044C23.5395 15.4413 23.2167 15.2205 22.9449 14.9419C22.6663 14.6701 22.4353 14.3542 22.2518 13.994C22.0752 13.6339 21.9393 13.25 21.8441 12.8423C21.7422 12.4414 21.6811 12.0269 21.6607 11.5988C21.6403 11.1708 21.6505 10.7529 21.6913 10.3452L21.7218 10.1312ZM24.4738 10.3452C24.4534 10.5558 24.4398 10.7835 24.433 11.0281C24.4262 11.2659 24.4364 11.5003 24.4636 11.7313C24.4907 11.9692 24.5383 12.1968 24.6063 12.4142C24.6742 12.6249 24.7727 12.8117 24.9018 12.9748C25.0309 13.1447 25.1906 13.284 25.3809 13.3927C25.5779 13.4946 25.8157 13.549 26.0943 13.5558C26.339 13.5626 26.57 13.5388 26.7874 13.4844C27.0049 13.4301 27.2053 13.3485 27.3888 13.2398C27.545 13.1515 27.6911 13.0428 27.827 12.9136C27.9697 12.7845 28.1056 12.6419 28.2347 12.4856L29.0705 7.78692C28.9822 7.59666 28.8768 7.43359 28.7545 7.29769C28.6322 7.155 28.4963 7.03948 28.3468 6.95115C28.2041 6.87641 28.0513 6.81865 27.8882 6.77788C27.7251 6.73711 27.5484 6.71333 27.3582 6.70654C26.8961 6.69974 26.4952 6.80166 26.1555 7.01231C25.8157 7.21615 25.5338 7.48455 25.3095 7.8175C25.0785 8.15045 24.895 8.52416 24.7591 8.93865C24.63 9.34634 24.5417 9.74384 24.4941 10.1312L24.4738 10.3452Z" fill="black"/>
<path d="M32.9293 10.1312C32.9837 9.6691 33.0754 9.20365 33.2045 8.73481C33.3336 8.26596 33.5001 7.8175 33.7039 7.38942C33.9078 6.96134 34.149 6.56384 34.4276 6.19692C34.7062 5.83 35.0289 5.51064 35.3958 5.23884C35.756 4.97384 36.1569 4.77 36.5985 4.62731C37.047 4.47782 37.5362 4.40987 38.0662 4.42346C38.3924 4.43025 38.7049 4.47442 39.0039 4.55596C39.3097 4.6307 39.5917 4.74622 39.8499 4.9025C40.0062 4.99763 40.1556 5.11314 40.2983 5.24904C40.441 5.37814 40.5701 5.52423 40.6856 5.68731L41.0526 4.61711L43.5905 4.62731L41.7762 15.2986C41.6675 16.0461 41.4467 16.7154 41.1137 17.3065C40.7808 17.8977 40.3629 18.3937 39.8601 18.7946C39.3504 19.2023 38.7695 19.5081 38.1172 19.7119C37.4649 19.9226 36.765 20.0177 36.0176 19.9973C35.2837 19.9837 34.5737 19.824 33.8874 19.5183C33.2011 19.2193 32.6269 18.781 32.1649 18.2035L33.5816 16.5115C33.8874 16.9056 34.2441 17.2114 34.6518 17.4288C35.0595 17.6531 35.5181 17.772 36.0278 17.7856C36.4219 17.7992 36.7854 17.7482 37.1183 17.6327C37.4513 17.524 37.7469 17.3609 38.0051 17.1435C38.2633 16.9328 38.4807 16.6746 38.6574 16.3688C38.834 16.0699 38.9631 15.7301 39.0447 15.3496L39.1874 14.6973C39.0175 14.8604 38.8408 15.0099 38.6574 15.1458C38.4739 15.2817 38.2837 15.3972 38.0866 15.4923C37.8352 15.6214 37.5702 15.7165 37.2916 15.7777C37.0198 15.8388 36.731 15.866 36.4253 15.8592C35.936 15.8524 35.5012 15.7675 35.1206 15.6044C34.7469 15.4413 34.4242 15.2205 34.1524 14.9419C33.8738 14.6701 33.6428 14.3542 33.4593 13.994C33.2826 13.6339 33.1467 13.25 33.0516 12.8423C32.9497 12.4414 32.8885 12.0269 32.8681 11.5988C32.8478 11.1708 32.858 10.7529 32.8987 10.3452L32.9293 10.1312ZM35.6812 10.3452C35.6608 10.5558 35.6472 10.7835 35.6404 11.0281C35.6337 11.2659 35.6438 11.5003 35.671 11.7313C35.6982 11.9692 35.7458 12.1968 35.8137 12.4142C35.8817 12.6249 35.9802 12.8117 36.1093 12.9748C36.2384 13.1447 36.3981 13.284 36.5883 13.3927C36.7854 13.4946 37.0232 13.549 37.3018 13.5558C37.5464 13.5626 37.7774 13.5388 37.9949 13.4844C38.2123 13.4301 38.4128 13.3485 38.5962 13.2398C38.7525 13.1515 38.8986 13.0428 39.0345 12.9136C39.1772 12.7845 39.3131 12.6419 39.4422 12.4856L40.278 7.78692C40.1896 7.59666 40.0843 7.43359 39.962 7.29769C39.8397 7.155 39.7038 7.03948 39.5543 6.95115C39.4116 6.87641 39.2587 6.81865 39.0956 6.77788C38.9326 6.73711 38.7559 6.71333 38.5656 6.70654C38.1036 6.69974 37.7027 6.80166 37.3629 7.01231C37.0232 7.21615 36.7412 7.48455 36.517 7.8175C36.286 8.15045 36.1025 8.52416 35.9666 8.93865C35.8375 9.34634 35.7492 9.74384 35.7016 10.1312L35.6812 10.3452Z" fill="black"/>
<path d="M46.7256 0H52.7187L50.405 13.3519H53.4729L53.0652 15.6554H44.0043L44.4119 13.3519H47.6123L49.5285 2.31365H46.3179L46.7256 0Z" fill="black"/>
<path d="M59.9817 15.8592C59.2275 15.8524 58.5446 15.7097 57.9331 15.4311C57.3283 15.1526 56.8187 14.7754 56.4042 14.2998C55.9829 13.831 55.6738 13.2772 55.4767 12.6385C55.2797 11.9997 55.2151 11.3067 55.2831 10.5592L55.3238 10.1413C55.3918 9.52981 55.5345 8.93865 55.7519 8.36788C55.9761 7.79711 56.2615 7.27391 56.6081 6.79827C56.8527 6.4857 57.1211 6.19352 57.4133 5.92173C57.7054 5.64314 58.018 5.40192 58.3509 5.19808C58.7722 4.94667 59.2309 4.75301 59.7269 4.61711C60.2229 4.47442 60.7461 4.40987 61.2965 4.42346C62.0643 4.44384 62.7268 4.60352 63.284 4.9025C63.8412 5.20147 64.2931 5.59897 64.6396 6.095C64.9793 6.59782 65.2104 7.17199 65.3327 7.8175C65.4618 8.46301 65.4822 9.1425 65.3938 9.85596L65.2104 11.0587H58.0044C57.9908 11.412 58.035 11.7415 58.1369 12.0473C58.2388 12.3463 58.3883 12.6079 58.5854 12.8321C58.7756 13.0563 59.0134 13.2364 59.2988 13.3723C59.5842 13.5014 59.9104 13.5694 60.2773 13.5761C60.8549 13.5965 61.3984 13.498 61.9081 13.2806C62.4245 13.0563 62.8797 12.7404 63.2738 12.3327L64.5275 13.8717C64.0382 14.5512 63.3758 15.054 62.54 15.3802C61.711 15.7063 60.8582 15.866 59.9817 15.8592ZM61.0927 6.70654C60.7257 6.69295 60.3962 6.7541 60.104 6.89C59.8118 7.0259 59.5536 7.20936 59.3294 7.44038C59.0984 7.67141 58.8979 7.93301 58.7281 8.22519C58.5582 8.51737 58.4087 8.81295 58.2796 9.11192H62.7744L62.8254 8.85711C62.8729 8.55814 62.8661 8.27955 62.805 8.02134C62.7438 7.76314 62.6385 7.53891 62.489 7.34865C62.3327 7.1584 62.1357 7.00891 61.8979 6.90019C61.6668 6.78468 61.3984 6.72013 61.0927 6.70654Z" fill="black"/>
</svg>
